<?xml version="1.0" encoding="UTF-8" standalone="no"?>
<!DOCTYPE svg PUBLIC "-//W3C//DTD SVG 1.1//EN" "http://www.w3.org/Graphics/SVG/1.1/DTD/svg11.dtd">
<svg width="100%" height="100%" viewBox="0 0 60 60" version="1.1" xmlns="http://www.w3.org/2000/svg" xmlns:xlink="http://www.w3.org/1999/xlink" xml:space="preserve" xmlns:serif="http://www.serif.com/" style="fill-rule:evenodd;clip-rule:evenodd;stroke-linecap:square;stroke-linejoin:round;stroke-miterlimit:1.5;">
    <g transform="matrix(1,0,0,1.94073,-361.867,-164.658)">
        <rect x="-26.83" y="0" width="858.68" height="634.496" style="fill:rgb(119,199,233);"/>
    </g>
    <g id="Favicon---Icon" serif:id="Favicon / Icon" transform="matrix(0.672479,0,0,0.672479,-228.722,-111.536)">
        <rect x="340.118" y="165.858" width="89.222" height="89.222" style="fill:none;"/>
    </g>
    <g id="Logo" transform="matrix(1,0,0,1,-9.96033,-9.9847)">
        <path d="M35.485,44.533L24.419,55.511" style="fill:none;stroke:white;stroke-width:3px;"/>
        <g transform="matrix(-0.00402222,-0.999992,0.999992,-0.00402222,0.0791309,80.1525)">
            <path d="M35.485,44.533L24.419,55.511" style="fill:none;stroke:white;stroke-width:3px;"/>
        </g>
        <g transform="matrix(0.704257,-0.499984,0.709945,0.495978,-16.6295,40.1876)">
            <path d="M35.485,44.533L24.419,55.511" style="fill:none;stroke:white;stroke-width:3px;"/>
        </g>
        <g transform="matrix(0.704257,-0.499984,0.709945,0.495978,-16.6295,20.2399)">
            <path d="M35.485,44.533L24.419,55.511" style="fill:none;stroke:white;stroke-width:3px;"/>
        </g>
        <g id="Left-Bottom" serif:id="Left Bottom" transform="matrix(1.33559,0,0,1.33559,-62.7164,18.0548)">
            <path d="M61.877,26.916C64.357,26.916 66.37,28.929 66.37,31.408C66.37,33.888 64.357,35.901 61.877,35.901C59.398,35.901 57.385,33.888 57.385,31.408C57.385,28.929 59.398,26.916 61.877,26.916ZM61.877,29.162C63.117,29.162 64.124,30.168 64.124,31.408C64.124,32.648 63.117,33.654 61.877,33.654C60.638,33.654 59.631,32.648 59.631,31.408C59.631,30.168 60.638,29.162 61.877,29.162Z" style="fill:white;"/>
        </g>
        <g id="Mid-Bottom" serif:id="Mid Bottom" transform="matrix(1.33559,0,0,1.33559,-42.6656,18.0548)">
            <path d="M61.877,26.916C64.357,26.916 66.37,28.929 66.37,31.408C66.37,33.888 64.357,35.901 61.877,35.901C59.398,35.901 57.385,33.888 57.385,31.408C57.385,28.929 59.398,26.916 61.877,26.916ZM61.877,29.162C63.117,29.162 64.124,30.168 64.124,31.408C64.124,32.648 63.117,33.654 61.877,33.654C60.638,33.654 59.631,32.648 59.631,31.408C59.631,30.168 60.638,29.162 61.877,29.162Z" style="fill:white;"/>
        </g>
        <g id="Right-Bottom" serif:id="Right Bottom" transform="matrix(1.33559,0,0,1.33559,-22.6483,18.0548)">
            <path d="M61.877,26.916C64.357,26.916 66.37,28.929 66.37,31.408C66.37,33.888 64.357,35.901 61.877,35.901C59.398,35.901 57.385,33.888 57.385,31.408C57.385,28.929 59.398,26.916 61.877,26.916ZM61.877,29.162C63.117,29.162 64.124,30.168 64.124,31.408C64.124,32.648 63.117,33.654 61.877,33.654C60.638,33.654 59.631,32.648 59.631,31.408C59.631,30.168 60.638,29.162 61.877,29.162Z" style="fill:white;"/>
        </g>
        <g id="Middle" transform="matrix(1.33559,0,0,1.33559,-42.6656,-1.90733)">
            <path d="M61.877,26.916C64.357,26.916 66.37,28.929 66.37,31.408C66.37,33.888 64.357,35.901 61.877,35.901C59.398,35.901 57.385,33.888 57.385,31.408C57.385,28.929 59.398,26.916 61.877,26.916ZM61.877,29.162C63.117,29.162 64.124,30.168 64.124,31.408C64.124,32.648 63.117,33.654 61.877,33.654C60.638,33.654 59.631,32.648 59.631,31.408C59.631,30.168 60.638,29.162 61.877,29.162Z" style="fill:white;"/>
        </g>
        <g id="Top" transform="matrix(1.33559,0,0,1.33559,-42.6656,-21.9821)">
            <path d="M61.877,26.916C64.357,26.916 66.37,28.929 66.37,31.408C66.37,33.888 64.357,35.901 61.877,35.901C59.398,35.901 57.385,33.888 57.385,31.408C57.385,28.929 59.398,26.916 61.877,26.916ZM61.877,29.162C63.117,29.162 64.124,30.168 64.124,31.408C64.124,32.648 63.117,33.654 61.877,33.654C60.638,33.654 59.631,32.648 59.631,31.408C59.631,30.168 60.638,29.162 61.877,29.162Z" style="fill:white;"/>
        </g>
    </g>
</svg>
