<svg width="100%" height="100%" viewBox="0 0 1519 204" version="1.1" xmlns="http://www.w3.org/2000/svg"><g><path d="M0,5.87l40.104,0l0,157.422l95.052,0l0,34.505l-135.156,0l0,-191.927Z"/><path d="M162.891,5.87l40.755,0l-0,117.969c-0,13.195 1.562,22.83 4.687,28.906c4.861,10.764 15.452,16.146 31.771,16.146c16.233,0 26.78,-5.382 31.641,-16.146c3.125,-6.076 4.687,-15.711 4.687,-28.906l0,-117.969l40.756,0l-0,117.969c-0,20.399 -3.169,36.285 -9.506,47.656c-11.805,20.834 -34.331,31.25 -67.578,31.25c-33.246,0 -55.816,-10.416 -67.708,-31.25c-6.337,-11.371 -9.505,-27.257 -9.505,-47.656l-0,-117.969Z"/><path d="M394.401,39.204l0,125.26l36.979,0c18.924,0 32.118,-9.331 39.584,-27.995c4.079,-10.243 6.119,-22.439 6.119,-36.588c0,-19.531 -3.06,-34.527 -9.179,-44.987c-6.12,-10.46 -18.295,-15.69 -36.524,-15.69l-36.979,-0Zm43.75,-33.334c11.892,0.174 21.788,1.563 29.688,4.167c13.454,4.427 24.349,12.543 32.682,24.349c6.684,9.549 11.241,19.878 13.672,30.99c2.43,11.111 3.646,21.701 3.646,31.77c-0,25.521 -5.122,47.136 -15.365,64.844c-13.889,23.872 -35.33,35.807 -64.323,35.807l-82.682,0l-0,-191.927l82.682,0Z" /><path d="M632.943,169.152c15.885,-0 28.494,-5.86 37.825,-17.578c9.332,-11.719 13.998,-28.386 13.998,-50c-0,-21.528 -4.666,-38.173 -13.998,-49.935c-9.331,-11.763 -21.94,-17.644 -37.825,-17.644c-15.886,0 -28.559,5.86 -38.021,17.579c-9.462,11.718 -14.193,28.385 -14.193,50c0,21.614 4.731,38.281 14.193,50c9.462,11.718 22.135,17.578 38.021,17.578Zm91.927,-67.578c-0,34.461 -9.679,60.85 -29.037,79.166c-14.496,14.931 -35.46,22.396 -62.89,22.396c-27.431,0 -48.394,-7.465 -62.891,-22.396c-19.444,-18.316 -29.167,-44.705 -29.167,-79.166c0,-35.157 9.723,-61.546 29.167,-79.167c14.497,-14.931 35.46,-22.396 62.891,-22.396c27.43,0 48.394,7.465 62.89,22.396c19.358,17.621 29.037,44.01 29.037,79.167Z" /><path d="M794.401,39.204l0,42.317l47.135,0c8.421,0 15.257,-1.584 20.508,-4.752c5.252,-3.169 7.878,-8.789 7.878,-16.862c-0,-8.941 -3.472,-14.844 -10.417,-17.708c-5.989,-1.997 -13.628,-2.995 -22.916,-2.995l-42.188,-0Zm0,74.088l0,51.172l47.135,0c8.421,0 14.974,-1.128 19.662,-3.385c8.507,-4.167 12.76,-12.153 12.76,-23.959c0,-9.982 -4.123,-16.84 -12.369,-20.573c-4.601,-2.083 -11.068,-3.168 -19.401,-3.255l-47.787,0Zm54.948,-107.422c23.524,0.348 40.191,7.162 50,20.443c5.903,8.16 8.854,17.925 8.854,29.297c0,11.719 -2.951,21.137 -8.854,28.255c-3.299,3.993 -8.16,7.639 -14.583,10.938c9.809,3.559 17.209,9.201 22.2,16.927c4.991,7.725 7.487,17.1 7.487,28.125c0,11.371 -2.864,21.571 -8.594,30.599c-3.645,5.989 -8.203,11.024 -13.671,15.104c-6.164,4.687 -13.434,7.899 -21.81,9.635c-8.377,1.736 -17.47,2.604 -27.279,2.604l-86.979,0l-0,-191.927l93.229,0Z"/><path d="M1000.52,125.271l48.698,0l-23.959,-75.52l-24.739,75.52Zm2.474,-119.401l45.312,0l67.969,191.927l-43.49,0l-12.369,-39.453l-70.703,0l-13.282,39.453l-41.927,0l68.49,-191.927Z" /><path d="M1140.62,5.87l40.755,0l0,117.969c0,13.195 1.563,22.83 4.688,28.906c4.861,10.764 15.451,16.146 31.771,16.146c16.232,0 26.779,-5.382 31.64,-16.146c3.125,-6.076 4.688,-15.711 4.688,-28.906l-0,-117.969l40.755,0l-0,117.969c-0,20.399 -3.169,36.285 -9.505,47.656c-11.806,20.834 -34.332,31.25 -67.578,31.25c-33.247,0 -55.816,-10.416 -67.709,-31.25c-6.337,-11.371 -9.505,-27.257 -9.505,-47.656l0,-117.969Z" /><path d="M1460.42,5.87l57.682,0l-0,191.927l-37.37,0l0,-129.817c0,-3.733 0.044,-8.963 0.13,-15.69c0.087,-6.728 0.131,-11.914 0.131,-15.56l-36.329,161.067l-38.932,0l-36.068,-161.067c0,3.646 0.044,8.832 0.131,15.56c0.086,6.727 0.13,11.957 0.13,15.69l-0,129.817l-37.37,0l0,-191.927l58.333,0l34.896,150.912l34.636,-150.912Z" /></g></svg>