<svg class="ui-button circle-button create-button confirm-button" width="100%" height="100%" viewBox="0 0 125 125" style="fill-rule:evenodd;clip-rule:evenodd;stroke-linejoin:round;stroke-miterlimit:2;">
    <circle class="interior-background" cx="62.5" cy="62.475" r="62.5" />
    <path d="M62.5,-0.025c34.495,0 62.5,28.006 62.5,62.5c0,34.495 -28.005,62.5 -62.5,62.5c-34.495,0 -62.5,-28.005 -62.5,-62.5c0,-34.494 28.005,-62.5 62.5,-62.5Zm-0,16.667c25.296,0 45.833,20.537 45.833,45.833c0,25.297 -20.537,45.834 -45.833,45.834c-25.296,-0 -45.833,-20.537 -45.833,-45.834c-0,-25.296 20.537,-45.833 45.833,-45.833Z" />
    <path d="M96.382,51.911l-11.785,-11.785l-41.248,41.248l11.785,11.785l41.248,-41.248Zm-55.979,2.946l-11.785,11.785l14.731,14.732l11.785,-11.786l-14.731,-14.731Z" />
</svg>