<svg class="ui-button circle-button create-button add-number-button" width="100%" height="100%" viewBox="0 0 125 125" style="fill-rule:evenodd;clip-rule:evenodd;stroke-linejoin:round;stroke-miterlimit:2;">
    <circle class="interior-background" cx="62.5" cy="62.5" r="62.5" />
    <path d="M33.333,69.107l0,8.333l58.334,0l-0,-8.333l-58.334,-0Z" />
    <path d="M33.333,69.107l0,8.333l58.334,0l-0,-8.333l-58.334,-0Z" />
    <path d="M58.253,31.677l-8.334,-0l-8.198,58.333l8.333,-0l8.199,-58.333Z" />
    <path d="M58.253,31.677l-8.334,-0l-8.198,58.333l8.333,-0l8.199,-58.333Z" />
    <path d="M33.333,44.08l0,8.334l58.334,-0l-0,-8.334l-58.334,0Z" />
    <path d="M33.333,44.08l0,8.334l58.334,-0l-0,-8.334l-58.334,0Z" />
    <path d="M83.279,31.677l-8.333,-0l-8.199,58.333l8.334,-0l8.198,-58.333Z" />
    <path d="M83.279,31.677l-8.333,-0l-8.199,58.333l8.334,-0l8.198,-58.333Z" />
    <path d="M62.5,-0c34.495,-0 62.5,28.005 62.5,62.5c0,34.495 -28.005,62.5 -62.5,62.5c-34.495,-0 -62.5,-28.005 -62.5,-62.5c0,-34.495 28.005,-62.5 62.5,-62.5Zm0,16.667c25.296,-0 45.833,20.537 45.833,45.833c0,25.296 -20.537,45.833 -45.833,45.833c-25.296,0 -45.833,-20.537 -45.833,-45.833c-0,-25.296 20.537,-45.833 45.833,-45.833Z" />
</svg>