<svg class="ui-button circle-button change-button edit-button" width="100%" height="100%" viewBox="0 0 125 125" style="fill-rule:evenodd;clip-rule:evenodd;stroke-linejoin:round;stroke-miterlimit:2;">
    <path class="interior-background" d="M18.294,18.318c24.391,-24.391 63.996,-24.391 88.388,0c24.391,24.392 24.391,63.997 -0,88.388c-24.392,24.392 -63.997,24.392 -88.388,0c-24.392,-24.391 -24.392,-63.996 -0,-88.388Z"/>
    <path d="M18.294,18.318c24.391,-24.391 63.996,-24.391 88.388,0c24.391,24.392 24.391,63.997 -0,88.388c-24.392,24.392 -63.997,24.392 -88.388,0c-24.392,-24.391 -24.392,-63.996 -0,-88.388Zm11.785,11.785c17.887,-17.887 46.931,-17.887 64.818,0c17.887,17.887 17.887,46.931 -0,64.818c-17.887,17.887 -46.931,17.887 -64.818,0c-17.887,-17.887 -17.887,-46.931 -0,-64.818Z"/>
    <path d="M35.971,89.029l5.893,-17.678l11.785,11.785l-17.678,5.893Z"/>
    <path d="M44.81,68.405l11.785,11.785l38.302,-38.302l-11.785,-11.785l-38.302,38.302Z"/>
</svg>