<svg class="ui-button circle-button remove-button delete-button" width="100%" height="100%" viewBox="0 0 125 125" style="fill-rule:evenodd;clip-rule:evenodd;stroke-linejoin:round;stroke-miterlimit:2;">
    <circle class="interior-background" cx="62.5" cy="62.5" r="62.5" />
    <path d="M62.5,0c34.495,0 62.5,28.005 62.5,62.5c-0,34.495 -28.005,62.5 -62.5,62.5c-34.495,0 -62.5,-28.005 -62.5,-62.5c-0,-34.495 28.005,-62.5 62.5,-62.5Zm0,16.667c25.296,-0 45.833,20.537 45.833,45.833c0,25.296 -20.537,45.833 -45.833,45.833c-25.296,0 -45.833,-20.537 -45.833,-45.833c-0,-25.296 20.537,-45.833 45.833,-45.833Z"/>
    <path d="M37.457,33.412l0,58.176l49.935,-0l-0,-58.176l-49.935,0Z"/>
    <path d="M37.457,33.412l0,58.176l49.935,-0l-0,-58.176l-49.935,0Zm12.5,12.5l24.935,0c-0,0 -0,33.176 -0,33.176c-0,-0 -24.935,-0 -24.935,-0l0,-33.176Z" />
    <path d="M29.242,41.715l0,8.206l66.516,-0l-0,-8.206l-66.516,0Z" />
    <path d="M29.242,41.715l0,8.206l66.516,-0l-0,-8.206l-66.516,0Z"/>
    <rect class="interior-background" x="49.95" y="49.921" width="4.278" height="31.802" />
    <rect class="interior-background" x="70.772" y="49.921" width="4.278" height="31.802" />
    <rect class="interior-background" x="60.28" y="49.921" width="4.278" height="31.802" />
</svg>