<svg class="ui-button circle-button create-button add-text-button" width="100%" height="100%" viewBox="0 0 125 125" style="fill-rule:evenodd;clip-rule:evenodd;stroke-linejoin:round;stroke-miterlimit:2;">
    <circle class="interior-background" cx="62.5" cy="62.5" r="62.5"/>
    <path d="M33.333,37.421l0,8.333l58.334,0l-0,-8.333l-58.334,-0Z" />
    <path d="M54.167,87.53l-0,8.333l16.666,0l0,-8.333l-16.666,0Z" />
    <rect x="83.333" y="37.421" width="8.333" height="12.5" />
    <rect x="33.333" y="37.421" width="8.333" height="12.5" />
    <path d="M62.5,-0c34.495,-0 62.5,28.005 62.5,62.5c0,34.495 -28.005,62.5 -62.5,62.5c-34.495,-0 -62.5,-28.005 -62.5,-62.5c0,-34.495 28.005,-62.5 62.5,-62.5Zm0,16.667c25.296,-0 45.833,20.537 45.833,45.833c0,25.296 -20.537,45.833 -45.833,45.833c-25.296,0 -45.833,-20.537 -45.833,-45.833c-0,-25.296 20.537,-45.833 45.833,-45.833Z" />
    <rect x="58.333" y="37.421" width="8.333" height="58.333" />
</svg>