<svg class="ui-button circle-button create-button add-list-button" width="100%" height="100%" viewBox="0 0 125 125" style="fill-rule:evenodd;clip-rule:evenodd;stroke-linejoin:round;stroke-miterlimit:2;">
    <circle class="interior-background" cx="62.5" cy="62.475" r="62.5"/>
    <path d="M50.127,74.902l0,8.334l41.54,-0l-0,-8.334l-41.54,0Z" />
    <path d="M50.127,74.902l0,8.334l41.54,-0l-0,-8.334l-41.54,0Z" />
    <path d="M33.333,74.902l0,8.334l8.455,-0l-0,-8.334l-8.455,0Z" />
    <path d="M33.333,74.902l0,8.334l8.455,-0l-0,-8.334l-8.455,0Zm0.121,4.167l4.107,4.106l4.106,-4.106l-4.106,-4.106l-4.107,4.106Z" />
    <path d="M50.127,58.309l0,8.333l41.54,0l-0,-8.333l-41.54,-0Z"/>
    <path d="M50.127,58.309l0,8.333l41.54,0l-0,-8.333l-41.54,-0Z" />
    <path d="M33.333,58.309l0,8.333l8.455,0l-0,-8.333l-8.455,-0Z" />
    <path d="M33.333,58.309l0,8.333l8.455,0l-0,-8.333l-8.455,-0Zm0.121,4.166l4.107,4.107l4.106,-4.107l-4.106,-4.106l-4.107,4.106Z" />
    <path d="M50.127,41.5l0,8.333l41.54,0l-0,-8.333l-41.54,-0Z" />
    <path d="M50.127,41.5l0,8.333l41.54,0l-0,-8.333l-41.54,-0Z" />
    <path d="M33.333,41.5l0,8.333l8.455,0l-0,-8.333l-8.455,-0Z" />
    <path d="M33.333,41.5l0,8.333l8.455,0l-0,-8.333l-8.455,-0Zm0.121,4.167l4.107,4.106l4.106,-4.106l-4.106,-4.106l-4.107,4.106Z" />
    <path d="M62.5,-0.025c34.495,0 62.5,28.006 62.5,62.5c0,34.495 -28.005,62.5 -62.5,62.5c-34.495,0 -62.5,-28.005 -62.5,-62.5c0,-34.494 28.005,-62.5 62.5,-62.5Zm0,16.667c25.296,0 45.833,20.537 45.833,45.833c0,25.297 -20.537,45.834 -45.833,45.834c-25.296,-0 -45.833,-20.537 -45.833,-45.834c-0,-25.296 20.537,-45.833 45.833,-45.833Z" />
</svg>