<svg class="ui-button circle-button remove-button delete-button" width="100%" height="100%" viewBox="0 0 125 125" style="fill-rule:evenodd;clip-rule:evenodd;stroke-linejoin:round;stroke-miterlimit:2;">
    <circle class="interior-background" cx="62.5" cy="62.475" r="62.5"/>
    <path d="M47.769,35.959l-11.786,11.785l41.248,41.248l11.786,-11.785l-41.248,-41.248Z"/>
    <path d="M35.983,77.207l11.786,11.785l41.248,-41.248l-11.786,-11.785l-41.248,41.248Z"/>
    <path d="M62.5,-0.025c34.495,0 62.5,28.006 62.5,62.5c-0,34.495 -28.005,62.5 -62.5,62.5c-34.495,0 -62.5,-28.005 -62.5,-62.5c-0,-34.494 28.005,-62.5 62.5,-62.5Zm-0,16.667c25.296,0 45.833,20.537 45.833,45.833c0,25.297 -20.537,45.834 -45.833,45.834c-25.296,-0 -45.833,-20.537 -45.833,-45.834c-0,-25.296 20.537,-45.833 45.833,-45.833Z"/>
</svg>