<svg class="ui-button editor-button" width="100%" height="100%" viewBox="0 0 382 240" style="fill-rule:evenodd;clip-rule:evenodd;stroke-linejoin:round;stroke-miterlimit:2;">
    <g class="node-button">
        <rect class="interior-background" x="-0" y="31.366" width="333.333" height="208.333" />
        <path d="M333.333,31.366l-333.333,0l-0,208.333l333.333,0l0,-208.333Zm-12.5,12.5l0,183.333c0,0 -308.333,0 -308.333,0c-0,0 -0,-183.333 -0,-183.333l308.333,0Z"/>
        <rect x="41.849" y="83.594" width="68.371" height="20.833"/>
        <rect x="41.849" y="125.128" width="68.371" height="20.833"/>
        <rect x="41.849" y="166.638" width="68.371" height="20.833"/>
        <rect x="124.841" y="91.928" width="166.644" height="12.5"/>
        <rect x="124.841" y="133.462" width="166.644" height="12.5"/>
        <rect x="124.841" y="174.971" width="166.644" height="12.5"/>
    </g>
    <g class="create-button">
        <circle class="interior-background" cx="318.919" cy="62.5" r="62.5" />
        <path d="M318.919,-0c34.495,-0 62.5,28.005 62.5,62.5c0,34.495 -28.005,62.5 -62.5,62.5c-34.494,-0 -62.5,-28.005 -62.5,-62.5c0,-34.495 28.006,-62.5 62.5,-62.5Zm0,16.667c25.296,-0 45.834,20.537 45.834,45.833c-0,25.296 -20.538,45.833 -45.834,45.833c-25.296,0 -45.833,-20.537 -45.833,-45.833c0,-25.296 20.537,-45.833 45.833,-45.833Z" />
        <rect x="310.586" y="33.333" width="16.667" height="58.333" />
        <path d="M289.753,54.167l-0,16.666l58.333,0l0,-16.666l-58.333,-0Z"/>
    </g>
</svg>