<svg class="ui-button circle-button change-button drag-button" width="100%" height="100%" viewBox="0 0 125 125" style="fill-rule:evenodd;clip-rule:evenodd;stroke-linejoin:round;stroke-miterlimit:2;">
    <circle class="interior-background" cx="62.5" cy="62.5" r="62.5"/>
    <path d="M33.333,74.927l0,8.333l58.334,0l-0,-8.333l-58.334,-0Z" />
    <path d="M33.333,74.927l0,8.333l58.334,0l-0,-8.333l-58.334,-0Z" />
    <path d="M33.333,58.333l0,8.334l58.334,-0l-0,-8.334l-58.334,0Z" />
    <path d="M33.333,58.333l0,8.334l58.334,-0l-0,-8.334l-58.334,0Z" />
    <path d="M33.333,41.524l0,8.334l58.334,-0l-0,-8.334l-58.334,0Z" />
    <path d="M33.333,41.524l0,8.334l58.334,-0l-0,-8.334l-58.334,0Z" />
    <path d="M62.5,0c34.495,0 62.5,28.005 62.5,62.5c0,34.495 -28.005,62.5 -62.5,62.5c-34.495,0 -62.5,-28.005 -62.5,-62.5c0,-34.495 28.005,-62.5 62.5,-62.5Zm0,16.667c25.296,-0 45.833,20.537 45.833,45.833c0,25.296 -20.537,45.833 -45.833,45.833c-25.296,0 -45.833,-20.537 -45.833,-45.833c-0,-25.296 20.537,-45.833 45.833,-45.833Z" />
</svg>