<svg class="ui-button circle-button change-button move-button" width="100%" height="100%" viewBox="0 0 125 125" style="fill-rule:evenodd;clip-rule:evenodd;stroke-linejoin:round;stroke-miterlimit:2;">
    <circle class="interior-background" cx="62.5" cy="62.5" r="62.5"/>
    <path d="M62.5,-0.025c34.495,0 62.5,28.006 62.5,62.5c0,34.495 -28.005,62.5 -62.5,62.5c-34.495,0 -62.5,-28.005 -62.5,-62.5c0,-34.494 28.005,-62.5 62.5,-62.5Zm0,16.667c25.296,0 45.833,20.537 45.833,45.833c0,25.297 -20.537,45.834 -45.833,45.834c-25.296,-0 -45.833,-20.537 -45.833,-45.834c-0,-25.296 20.537,-45.833 45.833,-45.833Z"/>
    <rect x="58.333" y="33.333" width="8.333" height="58.333"/>
    <rect x="58.333" y="33.333" width="8.333" height="58.333"/>
    <path d="M33.333,58.309l0,8.333l58.334,0l-0,-8.333l-58.334,-0Z"/>
    <path d="M33.333,58.309l0,8.333l58.334,0l-0,-8.333l-58.334,-0Z"/>
    <path d="M62.5,25l8.333,16.667l-16.666,-0l8.333,-16.667Z"/>
    <path d="M62.5,100l-8.333,-16.667l16.666,0l-8.333,16.667Z"/>
    <path d="M25,62.5l16.667,-8.333l-0,16.666l-16.667,-8.333Z"/>
    <path d="M100,62.5l-16.667,8.333l0,-16.666l16.667,8.333Z"/>
</svg>