<svg width="100%" height="100%" viewBox="0 0 2075 204">
    <g id="site-logo-ludo">
        <path d="M0,5.859l40.104,0l0,157.422l95.052,0l0,34.505l-135.156,0l0,-191.927Z"/>
        <path d="M162.891,5.859l40.755,0l-0,117.969c-0,13.195 1.562,22.83 4.687,28.906c4.861,10.764 15.452,16.146 31.771,16.146c16.233,0 26.78,-5.382 31.641,-16.146c3.125,-6.076 4.687,-15.711 4.687,-28.906l0,-117.969l40.756,0l-0,117.969c-0,20.399 -3.169,36.285 -9.506,47.656c-11.805,20.834 -34.331,31.25 -67.578,31.25c-33.246,0 -55.816,-10.416 -67.708,-31.25c-6.337,-11.371 -9.505,-27.257 -9.505,-47.656l-0,-117.969Z"/>
        <path d="M394.401,39.193l0,125.26l36.979,0c18.924,0 32.118,-9.331 39.584,-27.995c4.079,-10.243 6.119,-22.439 6.119,-36.588c0,-19.531 -3.06,-34.527 -9.179,-44.987c-6.12,-10.46 -18.295,-15.69 -36.524,-15.69l-36.979,-0Zm43.75,-33.334c11.892,0.174 21.788,1.563 29.688,4.167c13.454,4.427 24.349,12.543 32.682,24.349c6.684,9.549 11.241,19.878 13.672,30.99c2.43,11.111 3.646,21.701 3.646,31.77c-0,25.521 -5.122,47.136 -15.365,64.844c-13.889,23.872 -35.33,35.807 -64.323,35.807l-82.682,0l-0,-191.927l82.682,0Z"/>
        <path d="M632.943,169.141c15.885,-0 28.494,-5.86 37.825,-17.578c9.332,-11.719 13.998,-28.386 13.998,-50c-0,-21.528 -4.666,-38.173 -13.998,-49.935c-9.331,-11.763 -21.94,-17.644 -37.825,-17.644c-15.886,0 -28.559,5.86 -38.021,17.579c-9.462,11.718 -14.193,28.385 -14.193,50c0,21.614 4.731,38.281 14.193,50c9.462,11.718 22.135,17.578 38.021,17.578Zm91.927,-67.578c-0,34.461 -9.679,60.85 -29.037,79.166c-14.496,14.931 -35.46,22.396 -62.89,22.396c-27.431,0 -48.394,-7.465 -62.891,-22.396c-19.444,-18.316 -29.167,-44.705 -29.167,-79.166c0,-35.157 9.723,-61.546 29.167,-79.167c14.497,-14.931 35.46,-22.396 62.891,-22.396c27.43,0 48.394,7.465 62.89,22.396c19.358,17.621 29.037,44.01 29.037,79.167Z"/>
    </g>
    <g id="site-logo-systems">
        <rect x="751.823" y="158.984" width="39.453" height="38.802"/>
        <path d="M858.594,138.542c1.215,8.767 3.602,15.321 7.161,19.661c6.511,7.899 17.665,11.849 33.464,11.849c9.462,0 17.144,-1.042 23.047,-3.125c11.198,-3.993 16.797,-11.415 16.797,-22.266c-0,-6.336 -2.778,-11.241 -8.334,-14.713c-5.555,-3.386 -14.279,-6.38 -26.172,-8.984l-20.312,-4.558c-19.965,-4.514 -33.768,-9.418 -41.406,-14.713c-12.934,-8.854 -19.401,-22.7 -19.401,-41.537c-0,-17.187 6.25,-31.467 18.75,-42.838c12.5,-11.372 30.859,-17.058 55.078,-17.058c20.225,0 37.478,5.361 51.757,16.081c14.28,10.721 21.767,26.281 22.461,46.68l-38.541,-0c-0.695,-11.545 -5.729,-19.748 -15.104,-24.61c-6.25,-3.211 -14.02,-4.817 -23.308,-4.817c-10.33,-0 -18.576,2.083 -24.739,6.25c-6.164,4.166 -9.245,9.982 -9.245,17.448c-0,6.857 3.038,11.979 9.114,15.364c3.907,2.257 12.24,4.905 25,7.943l33.073,7.943c14.497,3.472 25.434,8.116 32.813,13.932c11.458,9.028 17.187,22.092 17.187,39.193c0,17.534 -6.705,32.096 -20.117,43.685c-13.411,11.588 -32.357,17.382 -56.836,17.382c-25,0 -44.661,-5.707 -58.984,-17.122c-14.323,-11.415 -21.484,-27.105 -21.484,-47.07l38.281,-0Z"/>
        <path d="M1116.93,5.859l45.443,0l-64.193,119.792l0,72.135l-40.104,0l-0,-72.135l-66.406,-119.792l47.265,0l39.844,83.594l38.151,-83.594Z"/>
        <path d="M1214.32,138.542c1.215,8.767 3.602,15.321 7.161,19.661c6.511,7.899 17.665,11.849 33.464,11.849c9.462,0 17.144,-1.042 23.047,-3.125c11.198,-3.993 16.797,-11.415 16.797,-22.266c-0,-6.336 -2.778,-11.241 -8.334,-14.713c-5.555,-3.386 -14.279,-6.38 -26.172,-8.984l-20.312,-4.558c-19.965,-4.514 -33.767,-9.418 -41.406,-14.713c-12.934,-8.854 -19.401,-22.7 -19.401,-41.537c-0,-17.187 6.25,-31.467 18.75,-42.838c12.5,-11.372 30.859,-17.058 55.078,-17.058c20.225,0 37.478,5.361 51.758,16.081c14.279,10.721 21.766,26.281 22.461,46.68l-38.542,-0c-0.695,-11.545 -5.729,-19.748 -15.104,-24.61c-6.25,-3.211 -14.019,-4.817 -23.308,-4.817c-10.329,-0 -18.576,2.083 -24.739,6.25c-6.163,4.166 -9.245,9.982 -9.245,17.448c0,6.857 3.038,11.979 9.115,15.364c3.906,2.257 12.239,4.905 25,7.943l33.073,7.943c14.496,3.472 25.434,8.116 32.812,13.932c11.458,9.028 17.188,22.092 17.188,39.193c-0,17.534 -6.706,32.096 -20.118,43.685c-13.411,11.588 -32.356,17.382 -56.836,17.382c-25,0 -44.661,-5.707 -58.984,-17.122c-14.323,-11.415 -21.484,-27.105 -21.484,-47.07l38.281,-0Z"/>
        <path d="M1502.6,5.859l0,33.985l-57.422,-0l0,157.942l-40.364,0l-0,-157.942l-57.683,-0l0,-33.985l155.469,0Z"/>
        <path d="M1667.97,39.844l-101.563,-0l0,40.755l93.229,-0l0,33.333l-93.229,0l0,49.349l106.25,0l0,34.505l-145.442,0l-0,-191.927l140.755,0l-0,33.985Z"/>
        <path d="M1831.12,5.859l57.682,0l0,191.927l-37.37,0l0,-129.817c0,-3.733 0.044,-8.963 0.131,-15.69c0.086,-6.728 0.13,-11.914 0.13,-15.56l-36.328,161.067l-38.933,0l-36.067,-161.067c-0,3.646 0.043,8.832 0.13,15.56c0.087,6.727 0.13,11.957 0.13,15.69l0,129.817l-37.37,0l0,-191.927l58.334,0l34.895,150.912l34.636,-150.912Z"/>
        <path d="M1955.08,138.542c1.215,8.767 3.603,15.321 7.162,19.661c6.51,7.899 17.665,11.849 33.463,11.849c9.462,0 17.144,-1.042 23.047,-3.125c11.198,-3.993 16.797,-11.415 16.797,-22.266c-0,-6.336 -2.778,-11.241 -8.333,-14.713c-5.556,-3.386 -14.28,-6.38 -26.172,-8.984l-20.313,-4.558c-19.965,-4.514 -33.767,-9.418 -41.406,-14.713c-12.934,-8.854 -19.401,-22.7 -19.401,-41.537c-0,-17.187 6.25,-31.467 18.75,-42.838c12.5,-11.372 30.859,-17.058 55.078,-17.058c20.226,0 37.478,5.361 51.758,16.081c14.279,10.721 21.766,26.281 22.461,46.68l-38.542,-0c-0.694,-11.545 -5.729,-19.748 -15.104,-24.61c-6.25,-3.211 -14.019,-4.817 -23.307,-4.817c-10.33,-0 -18.577,2.083 -24.74,6.25c-6.163,4.166 -9.245,9.982 -9.245,17.448c0,6.857 3.038,11.979 9.115,15.364c3.906,2.257 12.239,4.905 25,7.943l33.073,7.943c14.496,3.472 25.434,8.116 32.812,13.932c11.459,9.028 17.188,22.092 17.188,39.193c-0,17.534 -6.706,32.096 -20.117,43.685c-13.412,11.588 -32.357,17.382 -56.836,17.382c-25,0 -44.662,-5.707 -58.985,-17.122c-14.323,-11.415 -21.484,-27.105 -21.484,-47.07l38.281,-0Z"/>
    </g>
</svg>